<svg height="128pt" preserveAspectRatio="xMidYMid meet" viewBox="0 0 128 128" width="128pt" xmlns="http://www.w3.org/2000/svg"><path d="m0 640v-640h640 640v640 640h-640-640zm557 375c158-9 304-20 324-25 45-12 109-58 143-103 118-154 38-371-159-428-18-6-126-4-267 3l-238 12v64 65l98-6c291-19 376-19 412 0 44 23 80 76 80 120 0 65-44 131-98 148-32 9-496 34-503 26-4-3-12-114-18-246s-14-270-17-307l-6-68h-58c-33 0-61 4-64 8-3 5 4 165 14 358 11 192 20 359 20 372 0 27-28 26 337 7z" transform="matrix(.1 0 0 -.1 0 128)"/></svg>